<svg id="Layer_1" data-name="Layer 1" xmlns="http://www.w3.org/2000/svg" viewBox="0 0 459.6 399.67"><defs><style>.cls-1{fill:#fff;}</style></defs><title>cgaslogo</title><path class="cls-1" d="M69.61,185.25H11.8a119.17,119.17,0,0,1,7.45-32.75A99,99,0,0,1,42,117.4a103.05,103.05,0,0,1,35.4-22.7q20.7-8.1,46.2-8.1,33,0,57.9,14.3T221,145.1l-52.1,21.6q-7.35-17.4-18.9-24.9a47.23,47.23,0,0,0-26.5-7.6,52.8,52.8,0,0,0-22.4,4.6A49.28,49.28,0,0,0,83.85,152a62.75,62.75,0,0,0-11.2,20.6A76.38,76.38,0,0,0,69.61,185.25Z"/><path class="cls-1" d="M227.35,235.9l-1.8,5.4a103.37,103.37,0,0,1-16,29.3,94.18,94.18,0,0,1-23.7,21.3,110.88,110.88,0,0,1-29.8,13,128.31,128.31,0,0,1-34.2,4.5c-16.4,0-31.4-2.7-44.9-8.1a100.66,100.66,0,0,1-34.9-22.8,103.58,103.58,0,0,1-22.7-35.3q-8-20.32-8.09-45h57.3c0,.41,0,.83,0,1.25a86.61,86.61,0,0,0,3.5,24.9,54.94,54.94,0,0,0,10.5,19.9,48,48,0,0,0,17.4,13c6.9,3.1,15,4.6,24.1,4.6a67.47,67.47,0,0,0,15.7-1.8,40.71,40.71,0,0,0,13.6-5.9,33.2,33.2,0,0,0,9.9-10.5,36.12,36.12,0,0,0,3.5-7.7v-.1Z"/><path class="cls-1" d="M285.5,185.25H227.62a119,119,0,0,1,7.43-32.55,99,99,0,0,1,22.7-35.1,103.05,103.05,0,0,1,35.4-22.7q20.7-8.1,46.2-8.1,33,0,57.9,14.3c16.6,9.5,29.8,24.3,39.5,44.2l-52,21.4q-7.35-17.4-18.9-24.9a47.8,47.8,0,0,0-26.5-7.6,52.8,52.8,0,0,0-22.4,4.6,48.38,48.38,0,0,0-17.2,13.2,62.75,62.75,0,0,0-11.2,20.6A74.73,74.73,0,0,0,285.5,185.25Z"/><path class="cls-1" d="M448.13,198.25q-.36,9.46-1.18,17.75a107.86,107.86,0,0,1-5.6,25.5,99.91,99.91,0,0,1-16,29.3,92.49,92.49,0,0,1-23.7,21.3,112.27,112.27,0,0,1-29.8,13,127.23,127.23,0,0,1-34.2,4.5c-16.4,0-31.4-2.7-44.9-8.1a101.6,101.6,0,0,1-34.9-22.8,103.58,103.58,0,0,1-22.7-35.3c-5.36-13.6-8.06-28.69-8.1-45.15h57.41c0,.42,0,.83,0,1.25a85.62,85.62,0,0,0,3.5,24.9,54.94,54.94,0,0,0,10.5,19.9,48,48,0,0,0,17.4,13c6.9,3.1,14.9,4.6,24.1,4.6a68.1,68.1,0,0,0,15.7-1.8,41.61,41.61,0,0,0,13.6-5.9,33.2,33.2,0,0,0,9.9-10.5,41.54,41.54,0,0,0,5.3-15.7h-45.1V198.25Z"/><polyline class="cls-1" points="452.9 330 452.9 343 10.4 343 10.4 330"/><rect class="cls-1" x="10.4" y="53.4" width="442.5" height="13"/></svg>